<svg width="295" height="102" viewBox="0 0 295 102" fill="none" xmlns="http://www.w3.org/2000/svg">
<path d="M35.2972 2.82584V2.22584H34.6972H2H1.4V2.82584V11.6348V12.2348H2H24.1638V99.1742V99.7742H24.7638H34.6972H35.2972V99.1742V2.82584ZM105.811 56.7538C110.506 54.1239 114.092 50.5835 116.553 46.137C116.706 48.1634 116.782 50.0596 116.782 51.8258C116.782 64.5839 113.768 74.2369 107.831 80.8792C101.895 87.4286 93.6998 90.7287 83.1673 90.7287C75.326 90.7287 69.2011 89.2266 64.7344 86.2854L64.1705 85.9141L63.868 86.5177L59.8671 94.5008L59.62 94.9939L60.0905 95.2815C65.9194 98.8458 73.6745 100.6 83.3053 100.6C92.2221 100.6 100.053 98.6996 106.779 94.8785L106.785 94.8753C113.517 90.9573 118.746 85.2221 122.473 77.6931C126.203 70.1571 128.053 60.9762 128.053 50.1742C128.053 34.7696 124.633 22.7788 117.71 14.2844C110.769 5.67648 100.787 1.4 87.8581 1.4C81.5233 1.4 75.7757 2.6551 70.6267 5.17649C65.5636 7.60905 61.5682 11.1241 58.6551 15.718C55.7368 20.3201 54.285 25.6184 54.285 31.5927C54.285 37.4732 55.6898 42.6789 58.5154 47.1893L58.5185 47.1941C61.3406 51.6052 65.2437 55.0264 70.211 57.4575L70.215 57.4594C75.2742 59.8896 81.0216 61.0972 87.4442 61.0972C94.336 61.0972 100.461 59.6563 105.803 56.7578L105.811 56.7538ZM101.53 48.8088L101.524 48.8114C97.9427 50.5981 93.7607 51.5011 88.9618 51.5011C81.6143 51.5011 75.8342 49.6478 71.5561 46.0032C67.3804 42.368 65.2803 37.4946 65.2803 31.3174C65.2803 25.1391 67.3812 20.265 71.5585 16.6296L71.5592 16.629C75.8444 12.8882 81.3975 10.9961 88.272 10.9961C93.535 10.9961 98.0379 11.9466 101.8 13.8234C105.581 15.7095 108.387 18.1631 110.25 21.1726L110.25 21.1726L110.256 21.1832C112.218 24.2072 113.195 27.4892 113.195 31.0421C113.195 34.8737 112.17 38.3371 110.121 41.448C108.07 44.5616 105.213 47.0163 101.53 48.8088ZM190.85 94.8785L190.856 94.8753C197.588 90.9573 202.817 85.2221 206.544 77.6931C210.274 70.1571 212.124 60.9762 212.124 50.1742C212.124 34.7707 208.705 22.7806 201.782 14.2862C194.841 5.67709 184.859 1.4 171.929 1.4C165.594 1.4 159.847 2.65504 154.698 5.17629C149.635 7.60886 145.639 11.124 142.726 15.718C139.808 20.3201 138.356 25.6184 138.356 31.5927C138.356 37.4732 139.761 42.6789 142.586 47.1893L142.589 47.1941C145.412 51.6052 149.315 55.0264 154.282 57.4575L154.286 57.4594C159.345 59.8896 165.093 61.0972 171.515 61.0972C178.407 61.0972 184.532 59.6563 189.875 56.7578L189.882 56.7538C194.577 54.1239 198.163 50.5835 200.624 46.137C200.777 48.1634 200.853 50.0596 200.853 51.8258C200.853 64.5839 197.839 74.2369 191.902 80.8792C185.966 87.4286 177.771 90.7287 167.238 90.7287C159.397 90.7287 153.272 89.2266 148.805 86.2854L148.242 85.9141L147.939 86.5177L143.938 94.5008L143.691 94.9939L144.161 95.2815C149.99 98.8458 157.746 100.6 167.376 100.6C176.293 100.6 184.124 98.6996 190.85 94.8785ZM185.601 48.8088L185.595 48.8114C182.014 50.5981 177.832 51.5011 173.033 51.5011C165.685 51.5011 159.905 49.6478 155.627 46.0032C151.451 42.368 149.351 37.4946 149.351 31.3174C149.351 25.1391 151.452 20.265 155.629 16.6296L155.63 16.629C159.915 12.8882 165.469 10.9961 172.343 10.9961C177.606 10.9961 182.109 11.9466 185.871 13.8234C189.652 15.7095 192.458 18.1631 194.321 21.1726L194.321 21.1726L194.327 21.1832C196.289 24.2072 197.266 27.4892 197.266 31.0421C197.266 34.8737 196.241 38.3371 194.192 41.448C192.141 44.5616 189.284 47.0163 185.601 48.8088ZM293.6 2.82584V2.22584H293H222.087H221.487V2.82584V29.6657V30.2657H222.087H231.883H232.483V29.6657V12.2348H280.618L241.269 98.9262L240.885 99.7742H241.816H252.577H252.964L253.124 99.4215L293.547 10.0929L293.6 9.97494V9.8455V2.82584Z" stroke="#8A1002" stroke-width="1.2"/>
</svg>
