<svg width="256" height="48" viewBox="0 0 256 48" fill="none" xmlns="http://www.w3.org/2000/svg">
<path d="M256 0H58.9312V47.2348H256V0Z" fill="black"/>
<path d="M74.6006 16.5127H71.7461V30.7207H74.6006V16.5127Z" fill="white"/>
<path fill-rule="evenodd" clip-rule="evenodd" d="M77.4907 16.5127H80.9954L86.4352 27.1509H86.4657V16.5127H89.1882V30.7207H85.7191L80.2792 20.1129H80.2437V30.7207H77.4907V16.5127Z" fill="white"/>
<path fill-rule="evenodd" clip-rule="evenodd" d="M102.684 30.5129C101.632 30.7871 100.51 30.9546 99.4535 30.9546C94.8618 30.9546 91.667 28.6797 91.667 23.8862C91.667 19.0266 94.6231 16.2744 99.4535 16.2744C100.373 16.2744 101.627 16.4775 102.648 16.8838L102.445 19.2653C101.394 18.6559 100.403 18.5188 99.3874 18.5188C96.4618 18.5188 94.6282 20.7633 94.6282 23.6831C94.6282 26.5724 96.4313 28.7458 99.4535 28.7458C100.576 28.7458 101.902 28.4715 102.547 28.1364L102.684 30.5129Z" fill="white"/>
<path fill-rule="evenodd" clip-rule="evenodd" d="M111.044 16.2744C115.498 16.2744 118.013 19.3008 118.013 23.5815C118.013 27.8977 115.529 30.9546 111.044 30.9546C106.488 30.9546 104.075 27.9282 104.075 23.5815C104.075 19.2297 106.523 16.2744 111.044 16.2744ZM111.044 28.7458C113.97 28.7458 115.021 26.1611 115.021 23.5815C115.021 21.0984 113.863 18.5188 111.044 18.5188C108.22 18.5188 107.067 21.1035 107.067 23.5815C107.067 26.1662 108.123 28.7458 111.044 28.7458Z" fill="white"/>
<path fill-rule="evenodd" clip-rule="evenodd" d="M120.359 16.5129H123.453C126.51 16.5129 130.152 16.4114 130.152 20.3874C130.152 22.0529 129.03 23.4138 127.227 23.6829V23.7185C127.973 23.7845 128.415 24.536 128.72 25.1809L130.995 30.7209H127.836L126.104 26.3031C125.698 25.252 125.322 24.8407 124.133 24.8407H123.214V30.7209H120.359V16.5129ZM123.214 22.5963H124.164C125.555 22.5963 127.155 22.3932 127.155 20.626C127.155 18.9249 125.591 18.7574 124.164 18.7574H123.214V22.5963Z" fill="white"/>
<path fill-rule="evenodd" clip-rule="evenodd" d="M132.804 16.5127H136.405C139.498 16.5127 142.322 17.4318 142.322 20.8289C142.322 24.1245 139.91 25.3482 136.847 25.3482H135.658V30.7156H132.804V16.5127ZM135.658 23.1038H136.644C138.071 23.1038 139.361 22.6265 139.361 20.9965C139.361 19.3309 138.137 18.7521 136.644 18.7521H135.658V23.1038Z" fill="white"/>
<path fill-rule="evenodd" clip-rule="evenodd" d="M150.647 16.2744C155.101 16.2744 157.58 19.3008 157.58 23.5815C157.58 27.8977 155.132 30.9546 150.647 30.9546C146.091 30.9546 143.678 27.9282 143.678 23.5815C143.678 19.2297 146.126 16.2744 150.647 16.2744ZM150.647 28.7458C153.537 28.7458 154.624 26.1611 154.624 23.5815C154.624 21.0984 153.466 18.5188 150.647 18.5188C147.823 18.5188 146.634 21.1035 146.634 23.5815C146.639 26.1662 147.726 28.7458 150.647 28.7458Z" fill="white"/>
<path fill-rule="evenodd" clip-rule="evenodd" d="M159.962 16.5129H163.055C166.083 16.5129 169.719 16.4114 169.719 20.3874C169.719 22.0529 168.632 23.4138 166.794 23.6829V23.7185C167.576 23.7845 168.018 24.536 168.323 25.1809L170.598 30.7209H167.403L165.702 26.3031C165.295 25.252 164.919 24.8407 163.731 24.8407H162.812V30.7209H159.957V16.5129H159.962ZM162.822 22.5963H163.741C165.168 22.5963 166.768 22.3932 166.768 20.626C166.768 18.9249 165.168 18.7574 163.741 18.7574H162.822V22.5963Z" fill="white"/>
<path fill-rule="evenodd" clip-rule="evenodd" d="M176.724 16.5127H179.918L185.495 30.7207H182.367L181.142 27.4911H175.362L174.138 30.7207H171.182L176.724 16.5127ZM178.288 19.3665H178.252L176.18 25.2467H180.325L178.288 19.3665Z" fill="white"/>
<path fill-rule="evenodd" clip-rule="evenodd" d="M187.329 16.5127H191.24C195.593 16.5127 199.433 18.0056 199.433 23.6167C199.433 29.2582 195.593 30.7207 191.24 30.7207H187.329V16.5127ZM190.184 28.4762H191.784C194.166 28.4762 196.477 26.7091 196.477 23.6167C196.477 20.5242 194.166 18.7571 191.784 18.7571H190.184V28.4762Z" fill="white"/>
<path fill-rule="evenodd" clip-rule="evenodd" d="M208.306 16.2744C212.761 16.2744 215.275 19.3008 215.275 23.5815C215.275 27.8977 212.791 30.9546 208.306 30.9546C203.75 30.9546 201.337 27.9282 201.337 23.5815C201.337 19.2297 203.786 16.2744 208.306 16.2744ZM208.306 28.7458C211.232 28.7458 212.283 26.1611 212.283 23.5815C212.319 21.0984 211.125 18.5188 208.306 18.5188C205.487 18.5188 204.329 21.1035 204.329 23.5815C204.329 26.1662 205.416 28.7458 208.306 28.7458Z" fill="white"/>
<path fill-rule="evenodd" clip-rule="evenodd" d="M217.622 16.5129H220.715C223.773 16.5129 227.414 16.4114 227.414 20.3874C227.414 22.0529 226.292 23.4138 224.489 23.6829V23.7185C225.235 23.7845 225.713 24.536 225.982 25.1809L228.257 30.7209H225.098L223.366 26.3031C222.96 25.252 222.62 24.8407 221.395 24.8407H220.476V30.7209H217.622V16.5129ZM220.476 22.5963H221.426C222.818 22.5963 224.418 22.3932 224.418 20.626C224.418 18.9249 222.853 18.7574 221.426 18.7574H220.476V22.5963Z" fill="white"/>
<path fill-rule="evenodd" clip-rule="evenodd" d="M234.378 16.5127H237.609L243.186 30.7207H240.026L238.802 27.4911H233.058L231.798 30.7207H228.842L234.378 16.5127ZM235.943 19.3665H235.907L233.865 25.2467H238.015L235.943 19.3665Z" fill="white"/>
<path d="M54.5122 0H0V47H54.5122V0Z" fill="#8A1002"/>
<path d="M16.9611 36.0852V37.8551H3.46094V36.0852H7.00061V9.08496H13.4214V36.0852H16.9611Z" fill="white"/>
<path d="M20.5059 36.0852V9.08496H26.5151L40.6326 27.6065V9.08496H47.0534V36.0852H51.0458V37.8551H40.6326L26.9267 19.8274V37.8551H16.5135V36.0852H20.5059Z" fill="white"/>
</svg>
