<svg width="126" height="144" viewBox="0 0 126 144" fill="none" xmlns="http://www.w3.org/2000/svg">
<g clip-path="url(#clip0_0_1015)">
<path d="M126 113.923H0V144H126V113.923Z" fill="black"/>
<path d="M10.0185 124.438H8.19336V133.485H10.0185V124.438Z" fill="white"/>
<path fill-rule="evenodd" clip-rule="evenodd" d="M11.8662 124.438H14.107L17.5851 131.212H17.6046V124.438H19.3452V133.485H17.1272L13.6491 126.73H13.6264V133.485H11.8662V124.438Z" fill="white"/>
<path fill-rule="evenodd" clip-rule="evenodd" d="M27.974 133.352C27.3018 133.527 26.5841 133.634 25.9086 133.634C22.9729 133.634 20.9302 132.185 20.9302 129.133C20.9302 126.038 22.8202 124.286 25.9086 124.286C26.4964 124.286 27.2985 124.415 27.9513 124.674L27.8214 126.19C27.1492 125.802 26.5159 125.715 25.8664 125.715C23.9958 125.715 22.8235 127.144 22.8235 129.003C22.8235 130.843 23.9763 132.227 25.9086 132.227C26.6263 132.227 27.4739 132.053 27.8863 131.839L27.974 133.352Z" fill="white"/>
<path fill-rule="evenodd" clip-rule="evenodd" d="M33.3193 124.286C36.1674 124.286 37.7749 126.213 37.7749 128.939C37.7749 131.687 36.1869 133.634 33.3193 133.634C30.4063 133.634 28.8638 131.707 28.8638 128.939C28.8638 126.168 30.4291 124.286 33.3193 124.286ZM33.3193 132.227C35.1899 132.227 35.8621 130.581 35.8621 128.939C35.8621 127.358 35.1217 125.715 33.3193 125.715C31.5137 125.715 30.7766 127.361 30.7766 128.939C30.7766 130.585 31.452 132.227 33.3193 132.227Z" fill="white"/>
<path fill-rule="evenodd" clip-rule="evenodd" d="M39.2754 124.438H41.2531C43.2081 124.438 45.5366 124.373 45.5366 126.905C45.5366 127.966 44.8189 128.832 43.666 129.003V129.026C44.1434 129.068 44.4259 129.547 44.6208 129.957L46.0757 133.485H44.0557L42.9483 130.672C42.6885 130.003 42.4482 129.741 41.6883 129.741H41.1005V133.485H39.2754V124.438ZM41.1005 128.312H41.7078C42.5976 128.312 43.6206 128.182 43.6206 127.057C43.6206 125.974 42.6203 125.867 41.7078 125.867H41.1005V128.312Z" fill="white"/>
<path fill-rule="evenodd" clip-rule="evenodd" d="M47.2314 124.438H49.5339C51.5116 124.438 53.3173 125.023 53.3173 127.186C53.3173 129.285 51.7747 130.064 49.8165 130.064H49.0565V133.482H47.2314V124.438ZM49.0565 128.635H49.6866C50.5991 128.635 51.424 128.331 51.424 127.293C51.424 126.233 50.6413 125.864 49.6866 125.864H49.0565V128.635Z" fill="white"/>
<path fill-rule="evenodd" clip-rule="evenodd" d="M58.6401 124.286C61.4882 124.286 63.073 126.213 63.073 128.939C63.073 131.687 61.5077 133.634 58.6401 133.634C55.7271 133.634 54.1846 131.707 54.1846 128.939C54.1846 126.168 55.7499 124.286 58.6401 124.286ZM58.6401 132.227C60.488 132.227 61.1829 130.581 61.1829 128.939C61.1829 127.358 60.4425 125.715 58.6401 125.715C56.8345 125.715 56.0746 127.361 56.0746 128.939C56.0779 130.585 56.7728 132.227 58.6401 132.227Z" fill="white"/>
<path fill-rule="evenodd" clip-rule="evenodd" d="M64.596 124.438H66.5737C68.5093 124.438 70.8345 124.373 70.8345 126.905C70.8345 127.966 70.1395 128.832 68.9639 129.003V129.026C69.464 129.068 69.7466 129.547 69.9414 129.957L71.3963 133.485H69.3536L68.2657 130.672C68.0059 130.003 67.7656 129.741 67.0057 129.741H66.4179V133.485H64.5928V124.438H64.596ZM66.4244 128.312H67.0122C67.9247 128.312 68.9477 128.182 68.9477 127.057C68.9477 125.974 67.9247 125.867 67.0122 125.867H66.4244V128.312Z" fill="white"/>
<path fill-rule="evenodd" clip-rule="evenodd" d="M75.313 124.438H77.3557L80.9215 133.485H78.921L78.1384 131.429H74.4427L73.6601 133.485H71.77L75.313 124.438ZM76.3133 126.255H76.2905L74.9656 129.999H77.6155L76.3133 126.255Z" fill="white"/>
<path fill-rule="evenodd" clip-rule="evenodd" d="M82.0938 124.438H84.5943C87.3774 124.438 89.8326 125.389 89.8326 128.962C89.8326 132.554 87.3774 133.485 84.5943 133.485H82.0938V124.438ZM83.9189 132.056H84.9418C86.4649 132.056 87.9425 130.931 87.9425 128.962C87.9425 126.992 86.4649 125.867 84.9418 125.867H83.9189V132.056Z" fill="white"/>
<path fill-rule="evenodd" clip-rule="evenodd" d="M95.5059 124.286C98.3539 124.286 99.9615 126.213 99.9615 128.939C99.9615 131.687 98.3734 133.634 95.5059 133.634C92.5929 133.634 91.0503 131.707 91.0503 128.939C91.0503 126.168 92.6156 124.286 95.5059 124.286ZM95.5059 132.227C97.3764 132.227 98.0487 130.581 98.0487 128.939C98.0714 127.358 97.3082 125.715 95.5059 125.715C93.7035 125.715 92.9631 127.361 92.9631 128.939C92.9631 130.585 93.658 132.227 95.5059 132.227Z" fill="white"/>
<path fill-rule="evenodd" clip-rule="evenodd" d="M101.462 124.438H103.44C105.395 124.438 107.723 124.373 107.723 126.905C107.723 127.966 107.005 128.832 105.853 129.003V129.026C106.33 129.068 106.635 129.547 106.807 129.957L108.262 133.485H106.242L105.135 130.672C104.875 130.003 104.657 129.741 103.875 129.741H103.287V133.485H101.462V124.438ZM103.287 128.312H103.894C104.784 128.312 105.807 128.182 105.807 127.057C105.807 125.974 104.807 125.867 103.894 125.867H103.287V128.312Z" fill="white"/>
<path fill-rule="evenodd" clip-rule="evenodd" d="M112.175 124.438H114.24L117.806 133.485H115.786L115.004 131.429H111.331L110.525 133.485H108.635L112.175 124.438ZM113.175 126.255H113.153L111.847 129.999H114.5L113.175 126.255Z" fill="white"/>
<path d="M126 0H0V108.636H126V0Z" fill="#8A1002"/>
<path d="M39.2043 83.4087V87.4995H8V83.4087H16.1816V21H31.0227V83.4087H39.2043Z" fill="white"/>
<path d="M47.3978 83.4087V21H61.2876L93.9189 63.8108V21H108.76V83.4087H117.988V87.4995H93.9189L62.2389 45.8303V87.4995H38.1697V83.4087H47.3978Z" fill="white"/>
</g>
<defs>
<clipPath id="clip0_0_1015">
<rect width="126" height="144" fill="white"/>
</clipPath>
</defs>
</svg>
