<svg width="68" height="78" viewBox="0 0 68 78" fill="none" xmlns="http://www.w3.org/2000/svg">
<g clip-path="url(#clip0_1_2095)">
<path d="M68 61.708H0V77.9998H68V61.708Z" fill="black"/>
<path d="M5.40685 67.4033H4.42188V72.3038H5.40685V67.4033Z" fill="white"/>
<path fill-rule="evenodd" clip-rule="evenodd" d="M6.4043 67.4033H7.61361L9.49066 71.0726H9.50118V67.4033H10.4406V72.3038H9.24354L7.36649 68.6451H7.35422V72.3038H6.4043V67.4033Z" fill="white"/>
<path fill-rule="evenodd" clip-rule="evenodd" d="M15.0973 72.2323C14.7345 72.3269 14.3472 72.3847 13.9827 72.3847C12.3983 72.3847 11.2959 71.6 11.2959 69.9467C11.2959 68.2706 12.3159 67.3213 13.9827 67.3213C14.2999 67.3213 14.7328 67.3913 15.0851 67.5315L15.015 68.3529C14.6522 68.1427 14.3104 68.0954 13.9599 68.0954C12.9504 68.0954 12.3177 68.8695 12.3177 69.8766C12.3177 70.8732 12.9399 71.6228 13.9827 71.6228C14.37 71.6228 14.8274 71.5282 15.05 71.4126L15.0973 72.2323Z" fill="white"/>
<path fill-rule="evenodd" clip-rule="evenodd" d="M17.9817 67.3213C19.5188 67.3213 20.3863 68.3651 20.3863 69.8416C20.3863 71.3303 19.5293 72.3847 17.9817 72.3847C16.4096 72.3847 15.5771 71.3408 15.5771 69.8416C15.5771 68.3406 16.4219 67.3213 17.9817 67.3213ZM17.9817 71.6228C18.9913 71.6228 19.3541 70.7313 19.3541 69.8416C19.3541 68.9851 18.9545 68.0954 17.9817 68.0954C17.0073 68.0954 16.6094 68.9869 16.6094 69.8416C16.6094 70.7331 16.974 71.6228 17.9817 71.6228Z" fill="white"/>
<path fill-rule="evenodd" clip-rule="evenodd" d="M21.1963 67.4034H22.2636C23.3187 67.4034 24.5753 67.3684 24.5753 68.7397C24.5753 69.3142 24.188 69.7836 23.5658 69.8764V69.8887C23.8235 69.9115 23.976 70.1707 24.0811 70.3931L24.8663 72.3039H23.7762L23.1785 70.7802C23.0383 70.4176 22.9086 70.2757 22.4985 70.2757H22.1813V72.3039H21.1963V67.4034ZM22.1813 69.5016H22.509C22.9892 69.5016 23.5413 69.4316 23.5413 68.8221C23.5413 68.2353 23.0015 68.1775 22.509 68.1775H22.1813V69.5016Z" fill="white"/>
<path fill-rule="evenodd" clip-rule="evenodd" d="M25.4902 67.4033H26.7328C27.8002 67.4033 28.7746 67.7203 28.7746 68.892C28.7746 70.0287 27.9421 70.4508 26.8853 70.4508H26.4752V72.3021H25.4902V67.4033ZM26.4752 69.6767H26.8152C27.3077 69.6767 27.7529 69.512 27.7529 68.9498C27.7529 68.3754 27.3305 68.1757 26.8152 68.1757H26.4752V69.6767Z" fill="white"/>
<path fill-rule="evenodd" clip-rule="evenodd" d="M31.6468 67.3213C33.1838 67.3213 34.0391 68.3651 34.0391 69.8416C34.0391 71.3303 33.1943 72.3847 31.6468 72.3847C30.0747 72.3847 29.2422 71.3408 29.2422 69.8416C29.2422 68.3406 30.087 67.3213 31.6468 67.3213ZM31.6468 71.6228C32.644 71.6228 33.0191 70.7313 33.0191 69.8416C33.0191 68.9851 32.6195 68.0954 31.6468 68.0954C30.6723 68.0954 30.2622 68.9869 30.2622 69.8416C30.264 70.7331 30.639 71.6228 31.6468 71.6228Z" fill="white"/>
<path fill-rule="evenodd" clip-rule="evenodd" d="M34.8611 67.4034H35.9285C36.973 67.4034 38.2279 67.3684 38.2279 68.7397C38.2279 69.3142 37.8528 69.7836 37.2184 69.8764V69.8887C37.4883 69.9115 37.6408 70.1707 37.7459 70.3931L38.5311 72.3039H37.4287L36.8416 70.7802C36.7014 70.4176 36.5717 70.2757 36.1616 70.2757H35.8443V72.3039H34.8594V67.4034H34.8611ZM35.8479 69.5016H36.1651C36.6576 69.5016 37.2096 69.4316 37.2096 68.8221C37.2096 68.2353 36.6576 68.1775 36.1651 68.1775H35.8479V69.5016Z" fill="white"/>
<path fill-rule="evenodd" clip-rule="evenodd" d="M40.6455 67.4033H41.7479L43.6723 72.3038H42.5927L42.1703 71.1899H40.1758L39.7534 72.3038H38.7334L40.6455 67.4033ZM41.1853 68.3876H41.173L40.458 70.4158H41.8881L41.1853 68.3876Z" fill="white"/>
<path fill-rule="evenodd" clip-rule="evenodd" d="M44.3047 67.4033H45.6542C47.1562 67.4033 48.4812 67.9182 48.4812 69.8536C48.4812 71.7994 47.1562 72.3038 45.6542 72.3038H44.3047V67.4033ZM45.2897 71.5297H45.8417C46.6637 71.5297 47.4612 70.9202 47.4612 69.8536C47.4612 68.7869 46.6637 68.1775 45.8417 68.1775H45.2897V71.5297Z" fill="white"/>
<path fill-rule="evenodd" clip-rule="evenodd" d="M51.5433 67.3213C53.0803 67.3213 53.9479 68.3651 53.9479 69.8416C53.9479 71.3303 53.0908 72.3847 51.5433 72.3847C49.9712 72.3847 49.1387 71.3408 49.1387 69.8416C49.1387 68.3406 49.9834 67.3213 51.5433 67.3213ZM51.5433 71.6228C52.5528 71.6228 52.9156 70.7313 52.9156 69.8416C52.9278 68.9851 52.516 68.0954 51.5433 68.0954C50.5706 68.0954 50.171 68.9869 50.171 69.8416C50.171 70.7331 50.546 71.6228 51.5433 71.6228Z" fill="white"/>
<path fill-rule="evenodd" clip-rule="evenodd" d="M54.7568 67.4034H55.8242C56.8793 67.4034 58.1359 67.3684 58.1359 68.7397C58.1359 69.3142 57.7486 69.7836 57.1264 69.8764V69.8887C57.384 69.9115 57.5488 70.1707 57.6416 70.3931L58.4268 72.3039H57.3367L56.739 70.7802C56.5988 70.4176 56.4814 70.2757 56.059 70.2757H55.7418V72.3039H54.7568V67.4034ZM55.7418 69.5016H56.0696C56.5498 69.5016 57.1018 69.4316 57.1018 68.8221C57.1018 68.2353 56.562 68.1775 56.0696 68.1775H55.7418V69.5016Z" fill="white"/>
<path fill-rule="evenodd" clip-rule="evenodd" d="M60.5393 67.4033H61.6539L63.5783 72.3038H62.4882L62.0658 71.1899H60.0836L59.6489 72.3038H58.6289L60.5393 67.4033ZM61.0791 68.3876H61.0668L60.3623 70.4158H61.7941L61.0791 68.3876Z" fill="white"/>
<path d="M68 0H0V58.8446H68V0Z" fill="#8A1002"/>
<path d="M21.1578 45.1797V47.3955H4.31738V45.1797H8.73286V11.375H16.7423V45.1797H21.1578Z" fill="white"/>
<path d="M25.5797 45.1797V11.375H33.0758L50.6863 34.5642V11.375H58.6958V45.1797H63.6761V47.3955H50.6863L33.5892 24.8247V47.3955H20.5995V45.1797H25.5797Z" fill="white"/>
</g>
<defs>
<clipPath id="clip0_1_2095">
<rect width="68" height="78" fill="white"/>
</clipPath>
</defs>
</svg>
