<svg width="67" height="13" viewBox="0 0 67 13" fill="none" xmlns="http://www.w3.org/2000/svg">
<path d="M27.7468 2.86814C26.5673 2.68048 25.5753 2.57324 24.7443 2.57324C24.1277 2.57324 23.5647 2.65367 23.0821 2.81452C22.3583 3.0558 21.8221 3.45793 21.4468 4.04772C21.0715 4.63751 20.9106 5.38815 20.9106 6.29964C20.9106 6.88943 20.9911 7.4256 21.1251 7.88135C21.3396 8.57837 21.6881 9.08774 22.2243 9.43625C22.7336 9.78476 23.4038 9.94561 24.2349 9.94561C24.7711 9.94561 25.3073 9.86519 25.7898 9.67753C25.763 9.83838 25.7362 10.1065 25.6826 10.2405C25.5753 10.5086 25.3877 10.7231 25.1196 10.8571C24.8515 10.9912 24.4762 11.0716 24.0204 11.0716C23.1626 11.0716 22.3583 10.9643 21.6881 10.7231C21.6345 10.6963 21.6077 10.7231 21.5541 10.7499C21.5272 10.7767 21.5004 10.8303 21.5004 10.8571V12.3048C21.5004 12.3584 21.5272 12.412 21.6077 12.4388C22.3047 12.6801 23.109 12.7873 23.9936 12.7873C24.637 12.7873 25.1732 12.7337 25.6558 12.5729C26.3796 12.3584 26.9426 12.0099 27.2911 11.4737C27.6664 10.9643 27.8541 10.1869 27.8541 9.35583V3.00218C27.8541 2.92175 27.8005 2.86814 27.7468 2.86814ZM23.0821 5.38815C23.1894 5.01283 23.377 4.77155 23.6451 4.58389C23.9132 4.39623 24.2617 4.3158 24.6907 4.3158C25.1732 4.3158 25.5217 4.36942 25.7898 4.44985V7.80092C25.3341 8.01539 24.8783 8.12263 24.4226 8.12263C24.1813 8.12263 23.9668 8.09582 23.7792 8.01539C23.5111 7.90816 23.3234 7.7205 23.1894 7.4256C23.0553 7.13071 22.9749 6.75539 22.9749 6.27283C22.9749 5.92432 23.0017 5.62943 23.0821 5.38815Z" fill="#767676"/>
<path d="M30.6422 5.01283C30.7494 4.74474 30.8834 4.55708 31.0979 4.44985C31.3124 4.3158 31.5805 4.26219 31.9022 4.26219C32.1434 4.26219 32.3311 4.28899 32.5188 4.34261C32.76 4.42304 32.9477 4.55708 33.0549 4.77155C33.1622 4.95921 33.2426 5.20049 33.2426 5.49538H30.5349C30.5349 5.30772 30.5885 5.14687 30.6422 5.01283ZM33.9396 3.0558C33.4034 2.73409 32.7332 2.57324 31.9022 2.57324C31.3392 2.57324 30.8298 2.65367 30.4009 2.78771C29.7575 3.00218 29.2481 3.40431 28.9264 3.9941C28.6047 4.55708 28.4438 5.28091 28.4438 6.1656C28.4438 6.7822 28.5243 7.31837 28.6851 7.80092C28.9264 8.49795 29.3822 9.03412 29.9987 9.40944C30.6153 9.75795 31.4464 9.94561 32.4115 9.94561C33.323 9.94561 33.9128 9.86519 34.5562 9.73114C34.583 9.73114 34.6098 9.70434 34.6366 9.67753C34.6634 9.65072 34.6634 9.5971 34.6634 9.5971V8.20305C34.6634 8.20305 34.6635 8.14944 34.6098 8.09582C34.5562 8.0422 34.4758 8.06901 34.4758 8.06901C33.7788 8.20305 33.2158 8.25667 32.5188 8.25667C31.7949 8.25667 31.2856 8.12263 30.9371 7.90816C30.7762 7.80092 30.6422 7.66688 30.5617 7.50603C30.5081 7.37199 30.4545 7.23794 30.4545 7.05028H35.012C35.0924 7.05028 35.146 6.99667 35.146 6.94305C35.1996 6.64815 35.1996 6.35326 35.1996 6.05836C35.1996 5.49538 35.1192 5.01283 34.9852 4.58389C34.8511 3.86006 34.4758 3.3775 33.9396 3.0558Z" fill="#767676"/>
<path d="M7.88174 0.723833C7.13109 0.241278 6.13917 0 4.93279 0C4.12853 0 3.4047 0.107235 2.7881 0.321704C1.8766 0.643407 1.15277 1.20639 0.697024 2.01065C0.214469 2.7881 0 3.83363 0 5.09364C0.0536173 6.5413 0.482555 7.74769 1.17958 8.57876C1.8498 9.43664 2.7881 9.91919 3.83363 9.91919C4.26257 9.91919 4.61108 9.86557 4.90598 9.78515C5.33492 9.6511 5.603 9.43664 5.76385 9.16855C5.92471 8.90046 5.97832 8.60557 6.00513 8.36429C6.00513 8.31067 5.97832 8.25706 5.95152 8.23025C5.92471 8.20344 5.87109 8.20344 5.81747 8.20344C5.79066 8.20344 5.73705 8.23025 5.68343 8.23025C5.49577 8.25706 5.20087 8.28386 4.93279 8.28386C4.45023 8.28386 4.0481 8.20344 3.69959 8.0694C3.16342 7.85493 2.7881 7.53322 2.52001 7.02386C2.25192 6.5145 2.11788 5.84428 2.11788 5.01321C2.11788 4.47704 2.1715 3.99449 2.30554 3.59236C2.4932 3.00257 2.7881 2.54682 3.21704 2.25192C3.64597 1.95703 4.20895 1.79618 4.93279 1.79618C5.38853 1.79618 5.81747 1.8766 6.13917 1.98384C6.64854 2.1715 7.02386 2.52001 7.29195 3.00257C7.56003 3.48512 7.69408 4.15534 7.69408 4.9596C7.69408 5.92471 7.50641 6.64854 7.18471 7.1579C7.1579 7.21152 7.1579 7.26514 7.18471 7.29195C7.21152 7.34556 7.26514 7.37237 7.31875 7.37237C7.31875 7.37237 7.4528 7.37237 7.61365 7.37237C8.20344 7.37237 8.63238 7.18471 8.95408 6.94343C9.3294 6.64854 9.54387 6.2196 9.67791 5.87109C9.81196 5.49577 9.83877 5.17407 9.83877 5.01321C9.83877 4.18215 9.73153 3.4315 9.54387 2.81491C9.19536 1.93022 8.65919 1.20639 7.88174 0.723833Z" fill="#767676"/>
<path d="M20.2134 9.78549H19.007C18.6049 9.78549 18.2832 9.46378 18.2832 9.06165V2.84205C18.2832 2.76163 18.3368 2.70801 18.4172 2.70801H20.1866C20.267 2.70801 20.3207 2.76163 20.3207 2.84205V9.62463C20.3475 9.70506 20.2939 9.78549 20.2134 9.78549Z" fill="#767676"/>
<path d="M20.2135 1.98387H18.4441C18.3637 1.98387 18.3101 1.93025 18.3101 1.84982V0.428965C18.3101 0.348539 18.3637 0.294922 18.4441 0.294922H20.2135C20.2939 0.294922 20.3475 0.348539 20.3475 0.428965V1.84982C20.3475 1.93025 20.2939 1.98387 20.2135 1.98387Z" fill="#767676"/>
<path fill-rule="evenodd" clip-rule="evenodd" d="M51.6608 3.10986L50.6152 7.47966L49.0871 3.16347C48.9531 2.81496 48.6314 2.57368 48.2561 2.57368H48.1757C47.8003 2.57368 47.4518 2.81496 47.3446 3.16347L45.8165 7.47966L44.771 3.10986C44.6905 2.78815 44.3956 2.54688 44.0739 2.54688H43.9399H43.2697C43.1892 2.54688 43.1088 2.6273 43.1356 2.73454L44.8782 9.65116C44.905 9.70478 44.9586 9.7584 45.0122 9.7584H46.299C46.3527 9.7584 46.4063 9.73159 46.4331 9.67797L48.2025 5.04008L49.9718 9.67797C49.9986 9.73159 50.0523 9.7584 50.1059 9.7584H51.3927C51.4463 9.7584 51.5267 9.70478 51.5267 9.65116L53.2961 2.73454C53.3229 2.65411 53.2425 2.54688 53.1621 2.54688H52.4918H52.3578C52.0361 2.57368 51.7412 2.78815 51.6608 3.10986Z" fill="#767676"/>
<path fill-rule="evenodd" clip-rule="evenodd" d="M8.90096 11.4479H7.61415C7.61415 11.4211 7.61415 11.4211 7.61415 11.3943C7.61415 11.3407 7.61415 11.2871 7.61415 11.2603C7.61415 11.2335 7.64096 11.2067 7.64096 11.2067C7.66777 11.1799 7.66777 11.1799 7.69458 11.1799C7.72138 11.1799 7.74819 11.1531 7.80181 11.1531L8.98139 10.8313C9.16905 10.7777 9.30309 10.6973 9.43714 10.6169C9.59799 10.456 9.70522 10.2684 9.73203 10.0807C9.78565 9.89304 9.78565 9.67858 9.78565 9.46411C9.78565 9.41049 9.78565 9.35687 9.78565 9.33006C9.78565 9.16921 9.75884 9.00836 9.70522 8.87432C9.65161 8.74027 9.54437 8.60623 9.41033 8.499H9.38352C9.22267 8.36495 9.03501 8.28453 8.84735 8.25772C8.65969 8.2041 8.44522 8.2041 8.23075 8.2041C8.0699 8.2041 7.93585 8.2041 7.80181 8.2041C7.42649 8.2041 7.10479 8.28453 6.8367 8.47219C6.70266 8.57942 6.59542 8.68666 6.5418 8.84751C6.46138 9.00836 6.43457 9.16921 6.43457 9.38368C6.43457 9.46411 6.46138 9.57134 6.48819 9.62496C6.54181 9.73219 6.64904 9.83943 6.75627 9.89305C6.8367 9.94666 6.94393 9.94666 7.05117 9.97347C7.10479 9.97347 7.21202 9.97347 7.21202 9.97347H7.58734V9.83943C7.58734 9.81262 7.58734 9.78581 7.58734 9.759C7.58734 9.65177 7.58734 9.54453 7.58734 9.49092C7.58734 9.41049 7.61415 9.35687 7.61415 9.33006C7.61415 9.30325 7.64096 9.27645 7.64096 9.24964C7.66777 9.22283 7.69458 9.19602 7.74819 9.19602C7.80181 9.16921 7.88224 9.16921 7.98947 9.16921C8.01628 9.16921 8.0699 9.16921 8.09671 9.16921C8.17713 9.16921 8.25756 9.16921 8.33798 9.16921C8.3916 9.16921 8.41841 9.19602 8.47203 9.19602C8.52564 9.22283 8.55245 9.24964 8.57926 9.27645C8.60607 9.33006 8.63288 9.38368 8.63288 9.51772C8.63288 9.54453 8.63288 9.54453 8.63288 9.57134C8.63288 9.65177 8.63288 9.70539 8.63288 9.759C8.63288 9.78581 8.63288 9.81262 8.60607 9.83943C8.60607 9.86624 8.57926 9.89305 8.55245 9.91985C8.52564 9.94666 8.44522 9.97347 8.36479 10.0003L7.1584 10.3756C7.02436 10.4024 6.91713 10.456 6.80989 10.5365C6.67585 10.6437 6.56861 10.8045 6.515 10.9654C6.46138 11.1262 6.43457 11.3139 6.43457 11.5016V12.3326C6.43457 12.4131 6.48819 12.4667 6.56861 12.4667H9.65161C9.73203 12.4667 9.78565 12.4131 9.78565 12.3326C9.78565 11.8233 9.41033 11.4479 8.90096 11.4479Z" fill="#767676"/>
<path fill-rule="evenodd" clip-rule="evenodd" d="M66.8072 4.55747C66.5927 3.88725 66.1906 3.37789 65.6544 3.05618C65.0915 2.70767 64.3944 2.54682 63.5366 2.54682C62.9736 2.54682 62.4642 2.62725 61.9549 2.81491V0.723833C61.9549 0.321704 61.6331 0 61.231 0H60.5608C60.4804 0 60.4268 0.0536172 60.4268 0.134043V5.09364V9.49025C60.4268 9.54387 60.4804 9.6243 60.534 9.6243C61.3919 9.81196 62.3302 9.91919 63.3489 9.91919C63.9387 9.91919 64.4749 9.83877 64.9306 9.67791C65.6276 9.43664 66.137 9.0077 66.4855 8.41791C66.834 7.80131 66.9949 7.05067 66.9949 6.11237C67.0217 5.52258 66.9413 5.01321 66.8072 4.55747ZM61.9549 5.09364V4.23576C62.4106 4.02129 62.92 3.91406 63.5366 3.91406C63.8851 3.91406 64.18 3.96768 64.4212 4.0481C64.7966 4.18215 65.0647 4.39661 65.2523 4.71832C65.44 5.04002 65.5472 5.46896 65.5472 6.03194C65.5472 6.46088 65.4936 6.8362 65.4132 7.1579C65.2791 7.64046 65.0378 7.98897 64.6893 8.20344C64.3408 8.44472 63.9119 8.55195 63.3221 8.55195C62.7859 8.55195 62.357 8.49833 61.9817 8.3911V5.09364H61.9549Z" fill="#767676"/>
<path fill-rule="evenodd" clip-rule="evenodd" d="M58.604 3.00218C58.0946 2.70729 57.4512 2.57324 56.7006 2.57324C56.1376 2.57324 55.6551 2.65367 55.2261 2.78771C54.5827 3.00218 54.1002 3.40431 53.7785 3.9941C53.4568 4.55708 53.2959 5.28091 53.2959 6.1656C53.2959 6.7822 53.3763 7.31837 53.5372 7.80092C53.7785 8.49795 54.2074 9.03412 54.7972 9.40944C55.387 9.75795 56.1644 9.94561 57.1027 9.94561C58.0142 9.94561 58.5504 9.86519 59.1938 9.67753C59.2474 9.65072 59.301 9.5971 59.301 9.54348V8.52476C59.301 8.47114 59.2742 8.44433 59.2474 8.41752C59.2206 8.39071 59.167 8.39071 59.1134 8.39071C58.4968 8.57837 58.041 8.6588 57.2368 8.6588C56.8346 8.6588 56.4593 8.60518 56.1644 8.52476C55.7087 8.39071 55.387 8.17624 55.1725 7.85454C54.9848 7.55965 54.8776 7.21113 54.8508 6.75539H59.6764C59.7568 6.75539 59.8104 6.70177 59.8104 6.62134C59.864 6.29964 59.864 5.97794 59.864 5.68304C59.864 5.17368 59.8104 4.71793 59.6764 4.34261C59.4619 3.75282 59.0866 3.29707 58.604 3.00218ZM54.9848 4.79836C55.1189 4.47665 55.3065 4.23538 55.6014 4.07453C55.8695 3.91367 56.2448 3.83325 56.7006 3.83325C56.9955 3.83325 57.2368 3.86006 57.4244 3.94048C57.7461 4.04772 57.9606 4.23538 58.1215 4.47665C58.2555 4.71793 58.3359 5.01283 58.3627 5.38815H54.8508C54.8508 5.17368 54.9044 4.98602 54.9848 4.79836Z" fill="#767676"/>
<path d="M42.3846 4.12858C42.2238 3.61922 41.9289 3.21709 41.4999 2.949C41.071 2.68092 40.5348 2.54688 39.8914 2.54688C39.1676 2.54688 38.4437 2.81496 37.854 3.29752C37.8003 3.00262 37.5323 2.70773 37.1569 2.70773H36.0042C35.9237 2.70773 35.8701 2.76134 35.8701 2.84177V9.62435C35.8701 9.70478 35.9237 9.7584 36.0042 9.7584H37.7735C37.854 9.7584 37.9076 9.70478 37.9076 9.62435V4.90603C38.4169 4.4771 38.9531 4.28944 39.4625 4.28944C39.6501 4.28944 39.811 4.31624 39.9182 4.34305C40.1059 4.39667 40.2399 4.5039 40.3472 4.66476C40.4276 4.82561 40.4812 5.04008 40.4812 5.30816V8.57882V9.03456C40.4812 9.43669 40.8029 9.7584 41.205 9.7584H41.6876C41.9289 9.7584 42.1433 9.7584 42.4114 9.7584C42.4382 9.7584 42.4918 9.73159 42.5187 9.70478C42.5455 9.67797 42.5723 9.65116 42.5723 9.59754C42.5723 8.12307 42.5723 6.75583 42.5723 5.28135C42.5455 4.87923 42.4918 4.4771 42.3846 4.12858Z" fill="#767676"/>
<path d="M17.6933 2.92194C17.7737 2.84152 17.6933 2.70747 17.586 2.70747H15.6022C15.5486 2.70747 15.5218 2.73428 15.495 2.76109L14.0741 4.6645L12.8141 2.97556C12.6801 2.7879 12.4656 2.68066 12.2243 2.68066H12.1439H10.9375H10.5354C10.4281 2.68066 10.3477 2.81471 10.4281 2.89513L12.8677 6.24621L10.4013 9.54367C10.3209 9.6241 10.4013 9.75814 10.5086 9.75814H12.4924C12.546 9.75814 12.5728 9.73133 12.5996 9.70452L14.0473 7.80111L15.3073 9.49006C15.4413 9.67772 15.6558 9.78495 15.8971 9.78495H16.2456H17.586C17.6933 9.78495 17.7737 9.65091 17.6933 9.57048L15.2269 6.27302L17.6933 2.92194Z" fill="#767676"/>
</svg>
